<svg id="Layer_1" data-name="Layer 1" xmlns="http://www.w3.org/2000/svg" viewBox="0 0 1553.56 338.43"><defs><style>.cls-1{fill:#46b8f9;}.cls-2{fill:#ff9648;}.cls-3{fill:#db8dff;}.cls-4{fill:#45ff45;}.cls-5{fill:none;stroke:#4b6cbf;stroke-linecap:round;stroke-linejoin:round;stroke-width:4px;}</style></defs><title>banner</title><path class="cls-1" d="M1504.14,192a1287.5,1287.5,0,0,1-74.83-112c9-3,17.88-6.26,26.4-9.65s16.72-7,24.33-10.7C1491.61,102.6,1499.05,147.05,1504.14,192Z"/><path class="cls-2" d="M1417.48,220.21c-22.19-39.23-43-79-62.9-119.11,19.4-4.65,38.52-9.74,57.06-15.42C1415.18,130.24,1417,175.15,1417.48,220.21Z"/><path class="cls-3" d="M1331.84,240.06q-29-61-55.49-122.74,30-5.4,59.41-11.89Q1335.28,172.6,1331.84,240.06Z"/><path class="cls-4" d="M1248.05,254.73q-26-62.25-50.14-125,30.42-4.2,60.55-9.27Q1254.34,187.53,1248.05,254.73Z"/><path class="cls-1" d="M1162.84,266.14q-23.65-63.16-45.76-126.7,30.7-3.19,61.22-7.11Q1171.43,199.23,1162.84,266.14Z"/><path class="cls-2" d="M1077.68,274.69q-21.67-63.85-42-128,30.87-2.3,61.62-5.27Q1088.24,208.08,1077.68,274.69Z"/><path class="cls-3" d="M992.55,280.8q-19.93-64.41-38.62-129,31-1.51,61.88-3.63Q1004.83,214.5,992.55,280.8Z"/><path class="cls-4" d="M909,284.67q-18.35-64.88-35.54-129.93,31-.8,62-2.14Q922.82,218.69,909,284.67Z"/><path class="cls-1" d="M823.86,286.61Q807,221.33,791.32,155.9q31.06-.09,62.12-.7Q839.22,221,823.86,286.61Z"/><path class="cls-2" d="M738.78,286.61Q723.42,221,709.2,155.2q31,.62,62.12.7Q755.62,221.32,738.78,286.61Z"/><path class="cls-3" d="M653.68,284.67q-13.84-66-26.5-132.07,31,1.36,62,2.14Q672,219.81,653.68,284.67Z"/><path class="cls-4" d="M570.09,280.8q-12.27-66.3-23.26-132.68,30.9,2.12,61.89,3.63Q590,216.37,570.09,280.8Z"/><path class="cls-1" d="M485,274.69q-10.53-66.62-19.63-133.27,30.75,3,61.63,5.27Q506.62,210.83,485,274.69Z"/><path class="cls-2" d="M399.8,266.14q-8.57-66.91-15.46-133.81,30.51,3.93,61.22,7.11Q423.44,203,399.8,266.14Z"/><path class="cls-3" d="M314.59,254.73q-6.22-67.18-10.4-134.29,30.09,5.09,60.55,9.27Q340.58,192.47,314.59,254.73Z"/><path class="cls-4" d="M230.8,240.06q-3.33-67.42-3.92-134.63,29.38,6.52,59.41,11.89Q259.71,179.06,230.8,240.06Z"/><path class="cls-1" d="M145.16,220.21c.52-45.06,2.31-90,5.84-134.53,18.54,5.68,37.66,10.77,57.06,15.42C188.21,141.23,167.35,181,145.16,220.21Z"/><path class="cls-2" d="M58.5,192C63.6,147.05,71,102.6,82.6,59.64c7.61,3.74,15.83,7.31,24.34,10.7S124.29,77,133.33,80C110.34,118.3,85.71,155.84,58.5,192Z"/><path class="cls-5" d="M1495.75,186.12c-27.21-36.15-51.84-73.7-74.84-112,9-3.05,17.88-6.26,26.4-9.65s16.72-7,24.33-10.7C1483.22,96.72,1490.65,141.18,1495.75,186.12Z"/><path class="cls-5" d="M1409.08,214.34q-33.27-58.84-62.9-119.12c19.4-4.64,38.52-9.73,57.06-15.42C1406.78,124.37,1408.57,169.28,1409.08,214.34Z"/><path class="cls-5" d="M1323.44,234.19q-29-61-55.48-122.75,30-5.39,59.4-11.88Q1326.88,166.73,1323.44,234.19Z"/><path class="cls-5" d="M1239.65,248.86q-26-62.25-50.14-125,30.42-4.2,60.55-9.27Q1245.94,181.67,1239.65,248.86Z"/><path class="cls-5" d="M1154.45,260.26q-23.67-63.16-45.76-126.69,30.69-3.19,61.22-7.12Q1163,193.35,1154.45,260.26Z"/><path class="cls-5" d="M1069.29,268.81q-21.69-63.84-42-128,30.87-2.31,61.63-5.27Q1079.83,202.2,1069.29,268.81Z"/><path class="cls-5" d="M984.15,274.93q-19.93-64.43-38.62-129.06,31-1.51,61.89-3.62Q996.43,208.61,984.15,274.93Z"/><path class="cls-5" d="M900.56,278.8Q882.22,213.93,865,148.87q31.05-.8,62.05-2.14Q914.41,212.82,900.56,278.8Z"/><path class="cls-5" d="M815.46,280.74Q798.63,215.45,782.92,150q31.08-.09,62.13-.71Q830.83,215.08,815.46,280.74Z"/><path class="cls-5" d="M730.38,280.74Q715,215.1,700.8,149.32q31.05.63,62.13.71Q747.21,215.45,730.38,280.74Z"/><path class="cls-5" d="M645.28,278.8q-13.83-66-26.5-132.07,31,1.35,62,2.14Q663.63,213.93,645.28,278.8Z"/><path class="cls-5" d="M561.7,274.93q-12.27-66.31-23.27-132.68,30.92,2.1,61.89,3.62Q581.62,210.51,561.7,274.93Z"/><path class="cls-5" d="M476.56,268.81Q466,202.21,456.93,135.55q30.75,3,61.63,5.27Q498.24,204.95,476.56,268.81Z"/><path class="cls-5" d="M391.4,260.26q-8.55-66.9-15.46-133.81,30.51,3.95,61.22,7.12Q415,197.09,391.4,260.26Z"/><path class="cls-5" d="M306.2,248.86Q300,181.68,295.79,114.57q30.1,5.09,60.55,9.27Q332.18,186.58,306.2,248.86Z"/><path class="cls-5" d="M222.41,234.19q-3.34-67.42-3.92-134.63,29.38,6.52,59.4,11.88Q251.31,173.18,222.41,234.19Z"/><path class="cls-5" d="M136.77,214.34c.51-45.06,2.3-90,5.84-134.54,18.54,5.69,37.66,10.78,57.06,15.42C179.81,135.35,159,175.11,136.77,214.34Z"/><path class="cls-5" d="M50.1,186.12c5.1-44.94,12.53-89.4,24.11-132.35,7.61,3.74,15.82,7.31,24.33,10.7s17.36,6.6,26.39,9.65C101.94,112.42,77.31,150,50.1,186.12Z"/></svg>